<mxfile host="app.diagrams.net" modified="2024-05-15T10:52:27.770Z" agent="Mozilla/5.0 (Windows NT 10.0; Win64; x64) AppleWebKit/537.36 (KHTML, like Gecko) Chrome/120.0.0.0 Safari/537.36" version="24.4.0" etag="-6v0ufrh36rWVMnYjzCl" type="github">
  <diagram name="第 1 页" id="63GvXFikWLpfrV340ftj">
    <mxGraphModel>
      <root>
        <mxCell id="0" />
        <mxCell id="1" parent="0" />
      </root>
    </mxGraphModel>
  </diagram>
</mxfile>
